#!OML:ASF F:\VICON\USERDATA\INSTALL\rory3\rory3.ASF
:FULLY-SPECIFIED
:DEGREES
3124
root 4.67519 17.7084 -6.95363 4.23376 -39.0917 1.41587
lowerback 4.63783 4.94004 3.93365
upperback 1.97999 6.73215 2.55425
thorax -0.403279 3.35865 0.11724
lowerneck -23.8021 -0.505804 -6.39341
upperneck 21.6381 0.680829 3.47868
head 10.8855 0.212442 2.43184
rclavicle -8.78628e-014 -3.81667e-014
rhumerus 4.19366 26.8034 -75.929
rradius 90.1266
rwrist -39.6982
rhand -15.4064 0.532627
rfingers 7.12502
rthumb 10.7728 -29.1711
lclavicle -8.78628e-014 -3.81667e-014
lhumerus -3.51905 -10.1951 68.8983
lradius 93.5412
lwrist 51.0443
lhand -5.76321 28.5937
lfingers 7.12502
lthumb 20.06 417.578
rfemur -5.52112 -7.26446 18.4834
rtibia 33.1227
rfoot -28.2967 -11.1627
rtoes -4.59383
lfemur -24.7492 6.81149 -23.167
ltibia 30.6382
lfoot -7.10661 5.89613
ltoes -7.22889
3125
root 4.67149 17.7048 -6.89971 4.09276 -38.7999 1.35944
lowerback 4.61205 4.92498 4.03046
upperback 2.00779 6.71309 2.51187
thorax -0.344464 3.35103 0.0269377
lowerneck -23.7858 -0.515007 -6.22935
upperneck 21.7734 0.585059 3.55375
head 10.9378 0.190195 2.41976
rclavicle -4.57205e-015 2.54444e-014
rhumerus 6.42733 26.8497 -75.6382
rradius 87.4305
rwrist -40.5102
rhand -15.3366 0.00527528
rfingers 7.12502
rthumb 10.8401 -29.695
lclavicle -4.57205e-015 2.54444e-014
lhumerus -1.18406 -9.84157 68.3072
lradius 90.7753
lwrist 51.6082
lhand -5.83514 29.3252
lfingers 7.12502
lthumb 19.9908 418.317
rfemur -5.50373 -7.70963 18.2882
rtibia 33.8765
rfoot -27.926 -10.7401
rtoes -4.42576
lfemur -24.3689 6.7303 -23.2272
ltibia 30.5788
lfoot -7.25017 5.75165
ltoes -8.02057
3126
root 4.6663 17.7102 -6.84805 4.00755 -38.4545 1.36576
lowerback 4.50706 4.88087 3.95933
upperback 1.98718 6.64748 2.54885
thorax -0.321794 3.31834 0.114102
lowerneck -23.6277 -0.533363 -6.18171
upperneck 21.8321 0.528868 3.55792
head 10.9336 0.167377 2.4042
rclavicle -1.18873e-013 -1.11319e-014
rhumerus 8.61066 26.9793 -75.1904
rradius 84.8387
rwrist -41.5961
rhand -15.1576 -0.633615
rfingers 7.12502
rthumb 11.0127 -30.3247
lclavicle -1.18873e-013 -1.11319e-014
lhumerus 1.02759 -9.46964 67.9326
lradius 87.993
lwrist 52.0112
lhand -6.22155 29.5258
lfingers 7.12502
lthumb 19.6194 418.556
rfemur -5.59915 -8.13858 18.069
rtibia 34.6311
rfoot -27.3785 -10.4963
rtoes -5.06308
lfemur -24.1045 6.62428 -23.329
ltibia 30.4936
lfoot -7.42188 5.52269
ltoes -8.01232
3127
root 4.65893 17.7291 -6.80016 3.94141 -38.0107 1.44524
lowerback 4.3887 4.86963 3.78899
upperback 1.96283 6.62173 2.56977
thorax -0.303787 3.30528 0.238115
lowerneck -23.5373 -0.654541 -6.31036
upperneck 21.8962 0.339523 3.77832
head 10.9503 0.0974588 2.47701
rclavicle -4.94974e-014 1.90833e-014
rhumerus 10.8093 26.8751 -74.7203
rradius 82.3279
rwrist -42.8908
rhand -15.1489 -1.30059
rfingers 7.12502
rthumb 11.0211 -30.9913
lclavicle -4.94974e-014 1.90833e-014
lhumerus 3.38944 -9.28604 67.6316
lradius 85.172
lwrist 52.5074
lhand -7.13419 29.9102
lfingers 7.12502
lthumb 18.7418 419.027
rfemur -5.75995 -8.53301 17.8217
rtibia 35.3944
rfoot -26.7639 -10.4151
rtoes -6.19285
lfemur -23.9586 6.49413 -23.4479
ltibia 30.349
lfoot -7.54059 5.11043
ltoes -5.8302
3128
root 4.65239 17.7392 -6.751 3.87051 -37.5647 1.47146
lowerback 4.30078 4.84336 3.72008
upperback 1.95172 6.58068 2.54012
thorax -0.271661 3.28548 0.254466
lowerneck -23.5116 -0.774642 -6.38538
upperneck 21.9874 0.112251 4.08556
head 10.9918 0.0262223 2.56822
rclavicle -7.55382e-015 3.65764e-014
rhumerus 13.0917 26.7445 -74.3696
rradius 79.7275
rwrist -44.4981
rhand -15.4419 -1.55045
rfingers 7.12502
rthumb 10.7386 -31.256
lclavicle -7.55382e-015 3.65764e-014
lhumerus 5.7569 -9.12029 67.2432
lradius 82.3928
lwrist 53.2831
lhand -8.1718 30.634
lfingers 7.12502
lthumb 17.7435 419.844
rfemur -5.89453 -8.98906 17.5817
rtibia 36.1871
rfoot -26.2353 -10.138
rtoes -6.15308
lfemur -23.6988 6.30699 -23.5174
ltibia 30.179
lfoot -7.62519 4.77621
ltoes -4.89017
3129
root 4.64762 17.7489 -6.6953 3.74551 -37.1703 1.52336
lowerback 4.19647 4.79487 3.71861
upperback 1.97532 6.50972 2.48113
thorax -0.18423 3.25215 0.209142
lowerneck -23.6292 -0.863722 -6.39114
upperneck 22.1684 -0.0761738 4.34476
head 11.0921 -0.0277964 2.6398
rclavicle -4.65156e-014 4.92986e-014
rhumerus 15.5035 26.6424 -74.0998
rradius 76.9773
rwrist -46.2482
rhand -15.8556 -1.57469
rfingers 7.12502
rthumb 10.3395 -31.3005
lclavicle -4.65156e-014 4.92986e-014
lhumerus 8.08563 -8.85944 66.8722
lradius 79.5987
lwrist 54.4997
lhand -9.11748 31.0975
lfingers 7.12502
lthumb 16.8333 420.388
rfemur -6.04405 -9.40038 17.2667
rtibia 37.0904
rfoot -25.5634 -9.80366
rtoes -5.88545
lfemur -23.3416 6.04394 -23.6362
ltibia 30.0408
lfoot -7.79908 4.60304
ltoes -4.86266
3130
root 4.64232 17.7588 -6.64131 3.54318 -36.7579 1.46948
lowerback 4.24612 4.79772 3.7746
upperback 2.03294 6.51551 2.46113
thorax -0.143722 3.25647 0.157109
lowerneck -23.7492 -0.993638 -6.25604
upperneck 22.3483 -0.332041 4.44757
head 11.1978 -0.119908 2.61927
rclavicle -7.37491e-014 -2.8625e-014
rhumerus 17.8796 26.3148 -73.8068
rradius 74.2501
rwrist -47.9396
rhand -16.4009 -1.65059
rfingers 7.12502
rthumb 9.81342 -31.4019
lclavicle -7.37491e-014 -2.8625e-014
lhumerus 10.6553 -8.70467 66.6372
lradius 76.6381
lwrist 55.9707
lhand -9.89912 31.4929
lfingers 7.12502
lthumb 16.0808 420.846
rfemur -6.11649 -9.63935 17.041
rtibia 38.1482
rfoot -24.8375 -9.60706
rtoes -6.01351
lfemur -22.8792 5.80034 -23.6633
ltibia 29.9506
lfoot -7.96671 4.45824
ltoes -4.33953
3131
root 4.63609 17.7568 -6.5909 3.37311 -36.3697 1.42089
lowerback 4.27307 4.80565 3.72854
upperback 2.06713 6.52469 2.46663
thorax -0.129125 3.26139 0.186763
lowerneck -23.6512 -1.11127 -6.1583
upperneck 22.3839 -0.57561 4.57272
head 11.2081 -0.206319 2.61013
rclavicle -1.21259e-014 -9.54166e-015
rhumerus 20.1335 25.9811 -73.5066
rradius 71.6956
rwrist -49.4361
rhand -17.0051 -1.94913
rfingers 7.12502
rthumb 9.23038 -31.7271
lclavicle -1.21259e-014 -9.54166e-015
lhumerus 13.3313 -8.49927 66.4418
lradius 73.5984
lwrist 57.5518
lhand -10.5673 32.1352
lfingers 7.12502
lthumb 15.4373 421.539
rfemur -6.31316 -9.83475 16.8297
rtibia 39.3369
rfoot -24.1684 -9.48731
rtoes -6.15045
lfemur -22.4717 5.66405 -23.7035
ltibia 29.8547
lfoot -8.09546 4.24912
ltoes -4.27823
3132
root 4.62735 17.7579 -6.54479 3.26491 -35.8993 1.40236
lowerback 4.32196 4.75211 3.61869
upperback 1.99542 6.45643 2.49069
thorax -0.246822 3.22481 0.26421
lowerneck -23.3761 -1.21066 -6.25534
upperneck 22.4445 -0.769896 4.8252
head 11.1928 -0.273097 2.6879
rclavicle -8.7664e-014 -9.54166e-015
rhumerus 22.2926 25.7021 -73.3321
rradius 69.1241
rwrist -50.7316
rhand -17.5396 -2.47278
rfingers 7.12502
rthumb 8.71463 -32.2729
lclavicle -8.7664e-014 -9.54166e-015
lhumerus 15.7268 -8.17513 66.387
lradius 70.6937
lwrist 59.5655
lhand -10.976 32.9619
lfingers 7.12502
lthumb 15.0437 422.395
rfemur -6.6627 -10.2203 16.6177
rtibia 40.6008
rfoot -23.3892 -9.46298
rtoes -6.84199
lfemur -22.1643 5.67704 -23.7859
ltibia 29.7492
lfoot -8.19481 3.81536
ltoes -4.47767
3133
root 4.61771 17.7651 -6.49747 3.20319 -35.427 1.47876
lowerback 4.33649 4.68276 3.40344
upperback 1.84502 6.36537 2.51697
thorax -0.438354 3.17543 0.400917
lowerneck -23.2262 -1.30578 -6.38588
upperneck 22.6928 -0.937705 5.05534
head 11.2705 -0.335004 2.77249
rclavicle -4.67144e-014 1.59028e-015
rhumerus 24.4452 25.4208 -73.1616
rradius 66.5344
rwrist -51.9663
rhand -18.0768 -3.06739
rfingers 7.12502
rthumb 8.19624 -32.8884
lclavicle -4.67144e-014 1.59028e-015
lhumerus 17.7693 -7.74682 66.5481
lradius 68.0254
lwrist 61.7531
lhand -11.189 33.7633
lfingers 7.12502
lthumb 14.8384 423.212
rfemur -7.18162 -10.7003 16.3287
rtibia 41.9281
rfoot -22.4126 -9.47635
rtoes -7.89943
lfemur -21.9361 5.65725 -23.9537
ltibia 29.5953
lfoot -8.26491 3.40715
ltoes -4.3334
3134
root 4.60759 17.7698 -6.44684 3.11238 -35.0751 1.64444
lowerback 4.2775 4.64632 3.14192
upperback 1.7769 6.30828 2.47531
thorax -0.500386 3.14582 0.504292
lowerneck -23.2872 -1.39584 -6.34216
upperneck 22.8926 -1.10801 5.14507
head 11.3693 -0.397821 2.77594
rclavicle -8.82604e-014 -2.8625e-014
rhumerus 26.6615 25.0312 -73.0526
rradius 64.077
rwrist -53.041
rhand -18.654 -3.84893
rfingers 7.12502
rthumb 7.63915 -33.691
lclavicle -8.82604e-014 -2.8625e-014
lhumerus 19.9141 -7.18714 66.7425
lradius 65.4197
lwrist 63.9321
lhand -11.3693 34.5787
lfingers 7.12502
lthumb 14.6648 424.04
rfemur -7.75499 -11.042 15.947
rtibia 43.2642
rfoot -21.4793 -9.33206
rtoes -8.04502
lfemur -21.6683 5.56401 -24.1874
ltibia 29.3797
lfoot -8.31922 3.24179
ltoes -4.0675
